{"title":"The Dark Knight 1080p DTS-MA 96/24","uid":6926663,"size":15825329584,"categoryP":"video","categoryS":"hd___movies","magnet":"?xt=urn:btih:ec6c142d0151f4b1bae103e94e1fab8eeb6157a2&amp;dn=The+Dark+Knight+1080p+DTS-MA+96%2F24&amp;tr=udp%3A%2F%2Ftracker.openbittorrent.com%3A80&amp;tr=udp%3A%2F%2Fopen.demonii.com%3A1337&amp;tr=udp%3A%2F%2Ftracker.coppersurfer.tk%3A6969&amp;tr=udp%3A%2F%2Fexodus.desync.com%3A6969","seeders":0,"leechers":1,"uploader":"BLORRY","files":1,"time":1325530390,"description":"The Dark Knight 2008 1080p DTS-MA, 96/24 core\n\nRipped from blu-ray, the dolby true-hd track converted to dts master audio with a 96/24 core.\n\nIt is a lossy track, but only barely.  If your rig supports dts 96/24, then that's what you'll get.  If your rig only supports standard DTS, it will still work perfectly, just at the lower sample rate, and it still sounds great. \n\nYes, the 1080p video track is huge, but it's well worth it on high res TVs.\n\nHere's some specs:\n\nVideo\nID                               : 1\nFormat                           : AVC\nFormat/Info                      : Advanced Video Codec\nFormat profile                   : &lt;a class=&quot;__cf_email__&quot; href=&quot;/cdn-cgi/l/email-protection&quot; data-cfemail=&quot;531e323a3d131f677d63&quot;&gt;[email&amp;#160;protected]&lt;/a&gt;&lt;script cf-hash='f9e31' type=&quot;text/javascript&quot;&gt;\n/* &lt;![CDATA[ */!function(){try{var t=&quot;currentScript&quot;in document?document.currentScript:function(){for(var t=document.getElementsByTagName(&quot;script&quot;),e=t.length;e--;)if(t[e].getAttribute(&quot;cf-hash&quot;))return t[e]}();if(t&amp;&amp;t.previousSibling){var e,r,n,i,c=t.previousSibling,a=c.getAttribute(&quot;data-cfemail&quot;);if(a){for(e=&quot;&quot;,r=parseInt(a.substr(0,2),16),n=2;a.length-n;n+=2)i=parseInt(a.substr(n,2),16)^r,e+=String.fromCharCode(i);e=document.createTextNode(e),c.parentNode.replaceChild(e,c)}}}catch(u){}}();/* ]]&gt; */&lt;/script&gt;\nFormat settings, CABAC           : Yes\nFormat settings, ReFrames        : 4 frames\nCodec ID                         : V_MPEG4/ISO/AVC\nDuration                         : 2h 32mn\nBit rate                         : 12.0 Mbps\nWidth                            : 1 920 pixels\nHeight                           : 800 pixels\nDisplay aspect ratio             : 2.40:1\nFrame rate mode                  : Variable\nFrame rate                       : 23.976 fps\nColor space                      : YUV\nChroma subsampling               : 4:2:0\nBit depth                        : 8 bits\nScan type                        : Progressive\nBits/(Pixel*Frame)               : 0.327\nStream size                      : 12.8 GiB (87%)\nWriting library                  : x264 core 119\n\n\nAudio\nID                               : 2\nFormat                           : DTS\nFormat/Info                      : Digital Theater Systems\nFormat profile                   : 96/24 / Core\nCodec ID                         : A_DTS\nDuration                         : 2h 32mn\nBit rate mode                    : Constant\nBit rate                         : 1 561 Kbps / 1 510 Kbps\nChannel(s)                       : 6 channels\nChannel positions                : Front: L C R, Side: L R, LFE\nSampling rate                    : 96.0 KHz / 48.0 KHz\nBit depth                        : 24 bits\nCompression mode                 : Lossy\nStream size                      : 1.66 GiB (11%)","torrent":{"xt":"urn:btih:ec6c142d0151f4b1bae103e94e1fab8eeb6157a2","amp;dn":"The+Dark+Knight+1080p+DTS-MA+96%2F24","amp;tr":["udp%3A%2F%2Ftracker.openbittorrent.com%3A80","udp%3A%2F%2Fopen.demonii.com%3A1337","udp%3A%2F%2Ftracker.coppersurfer.tk%3A6969","udp%3A%2F%2Fexodus.desync.com%3A6969"],"infoHash":"ec6c142d0151f4b1bae103e94e1fab8eeb6157a2","infoHashBuffer":{"type":"Buffer","data":[236,108,20,45,1,81,244,177,186,225,3,233,78,31,171,142,235,97,87,162]},"announce":[],"urlList":[]}}